{
    "asset" : {
        "generator" : "Khronos glTF Blender I/O v1.7.33",
        "version" : "2.0"
    },
    "scene" : 0,
    "scenes" : [
        {
            "name" : "Scene",
            "nodes" : [
                29,
                30
            ]
        }
    ],
    "nodes" : [
        {
            "name" : "Head",
            "rotation" : [
                0.004947597160935402,
                9.136665539699607e-06,
                -2.366256239838549e-06,
                0.999987781047821
            ],
            "scale" : [
                1,
                0.9999998807907104,
                0.9999999403953552
            ],
            "translation" : [
                1.5631940186722204e-13,
                0.027547689154744148,
                7.13728021128901e-10
            ]
        },
        {
            "children" : [
                0
            ],
            "name" : "Neck",
            "rotation" : [
                0.020686905831098557,
                -1.143615554610733e-05,
                -2.3742521193526045e-07,
                0.9997860193252563
            ],
            "scale" : [
                1,
                0.9999997615814209,
                0.9999998211860657
            ],
            "translation" : [
                -1.8592440954867673e-13,
                0.03111274354159832,
                1.3962193623484609e-09
            ]
        },
        {
            "name" : "LeftHand",
            "rotation" : [
                -0.0082117123529315,
                0.018025415018200874,
                -0.0004741179582197219,
                0.9998037219047546
            ],
            "scale" : [
                0.9999998807907104,
                0.9999997615814209,
                0.9999997615814209
            ],
            "translation" : [
                1.0598500965741664e-09,
                0.04792653024196625,
                -3.0543279905259624e-08
            ]
        },
        {
            "children" : [
                2
            ],
            "name" : "LeftForeArm",
            "rotation" : [
                0.000552736222743988,
                -0.0055605084635317326,
                -0.008575128391385078,
                0.9999476075172424
            ],
            "scale" : [
                1,
                1.0000001192092896,
                0.9999999403953552
            ],
            "translation" : [
                1.2802765514408065e-09,
                0.05094003304839134,
                -9.632397990344543e-09
            ]
        },
        {
            "children" : [
                3
            ],
            "name" : "LeftUpperArm",
            "rotation" : [
                -0.15831339359283447,
                -0.004309775773435831,
                0.008277893997728825,
                0.9873448014259338
            ],
            "scale" : [
                1,
                0.9999998807907104,
                0.9999999403953552
            ],
            "translation" : [
                -3.782889557157887e-10,
                0.029015380889177322,
                8.09062683515549e-09
            ]
        },
        {
            "children" : [
                4
            ],
            "name" : "LeftShoulder",
            "rotation" : [
                0.5869608521461487,
                0.42446309328079224,
                -0.5641368627548218,
                0.396305114030838
            ],
            "scale" : [
                0.9999999403953552,
                1,
                1
            ],
            "translation" : [
                0.0267319455742836,
                0.019796591252088547,
                -0.009355046786367893
            ]
        },
        {
            "name" : "RightHand",
            "rotation" : [
                0.008210861124098301,
                3.4223205602756934e-06,
                -0.0004886049428023398,
                0.9999662637710571
            ],
            "translation" : [
                -2.1514101611330716e-10,
                0.047926608473062515,
                -1.3700501177993374e-08
            ]
        },
        {
            "children" : [
                6
            ],
            "name" : "RightForeArm",
            "rotation" : [
                -0.0006758387899026275,
                0.00012451919610612094,
                -0.00856630876660347,
                0.999963104724884
            ],
            "scale" : [
                1,
                1.0000001192092896,
                1
            ],
            "translation" : [
                -4.68186933666459e-10,
                0.05094001069664955,
                -9.883853735459525e-09
            ]
        },
        {
            "children" : [
                7
            ],
            "name" : "RightUpperArm",
            "rotation" : [
                -0.0049849143251776695,
                -0.9872223734855652,
                0.15846244990825653,
                0.016024909913539886
            ],
            "scale" : [
                1,
                0.9999995827674866,
                0.9999999403953552
            ],
            "translation" : [
                1.0481139289808539e-09,
                0.029014209285378456,
                3.728368014321859e-08
            ]
        },
        {
            "children" : [
                8
            ],
            "name" : "RightShoulder",
            "rotation" : [
                0.5960976481437683,
                -0.43087008595466614,
                0.5544832348823547,
                0.38931596279144287
            ],
            "scale" : [
                0.9999997615814209,
                0.9999998211860657,
                1
            ],
            "translation" : [
                -0.026731938123703003,
                0.019796831533312798,
                -0.009355040267109871
            ]
        },
        {
            "children" : [
                1,
                5,
                9
            ],
            "name" : "Spine2",
            "rotation" : [
                -0.0005925139994360507,
                6.359433868396991e-09,
                3.406402243610884e-11,
                0.9999998211860657
            ],
            "translation" : [
                -7.849276784099857e-14,
                0.0356743298470974,
                -1.3969427836713066e-09
            ]
        },
        {
            "children" : [
                10
            ],
            "name" : "Spine1",
            "rotation" : [
                -0.0047082132659852505,
                -3.0457528055194416e-08,
                1.492057588592388e-10,
                0.9999889135360718
            ],
            "translation" : [
                2.1935202271098145e-14,
                0.03988151252269745,
                -9.312395299332366e-10
            ]
        },
        {
            "children" : [
                11
            ],
            "name" : "Spine",
            "rotation" : [
                -0.001796051161363721,
                -8.720890036784112e-07,
                9.659777866488639e-09,
                0.9999983906745911
            ],
            "translation" : [
                4.884981308350689e-14,
                0.035090453922748566,
                -1.3981369395565935e-09
            ]
        },
        {
            "name" : "LeftToe",
            "rotation" : [
                0.1616375893354416,
                -0.031152725219726562,
                -0.017839042469859123,
                0.9861970543861389
            ],
            "scale" : [
                0.9999998807907104,
                0.9999998211860657,
                0.9999999403953552
            ],
            "translation" : [
                -4.084675708782015e-09,
                0.034069303423166275,
                -6.213140668620554e-09
            ]
        },
        {
            "children" : [
                13
            ],
            "name" : "LeftFoot",
            "rotation" : [
                0.42999157309532166,
                0.017483465373516083,
                0.03681115806102753,
                0.9019126892089844
            ],
            "scale" : [
                1,
                1,
                0.9999999403953552
            ],
            "translation" : [
                -3.950405336183849e-09,
                0.07161947339773178,
                -1.6164952709729619e-09
            ]
        },
        {
            "children" : [
                14
            ],
            "name" : "LeftShin",
            "rotation" : [
                -0.0002718964824452996,
                -0.0033134538680315018,
                0.006506719160825014,
                0.9999734163284302
            ],
            "translation" : [
                -1.409181549227867e-09,
                0.08085759729146957,
                4.2637826602742734e-10
            ]
        },
        {
            "children" : [
                15
            ],
            "name" : "LeftThigh",
            "rotation" : [
                -0.0032881642691791058,
                -0.017758920788764954,
                0.999836266040802,
                0.0011190214427188039
            ],
            "scale" : [
                1,
                1.0000001192092896,
                1.000000238418579
            ],
            "translation" : [
                0.031198613345623016,
                -1.0008727180377264e-08,
                0.00017750862753018737
            ]
        },
        {
            "name" : "RightToe",
            "rotation" : [
                0.16127966344356537,
                0.03616488352417946,
                0.020831506699323654,
                0.9860259890556335
            ],
            "scale" : [
                0.9999999403953552,
                0.9999999403953552,
                0.9999998807907104
            ],
            "translation" : [
                -3.167547557580974e-09,
                0.03406909480690956,
                -1.3215076810624282e-09
            ]
        },
        {
            "children" : [
                17
            ],
            "name" : "RightFoot",
            "rotation" : [
                0.4282473623752594,
                -0.013123264536261559,
                -0.027638986706733704,
                0.903143584728241
            ],
            "scale" : [
                0.9999999403953552,
                0.9999998211860657,
                1
            ],
            "translation" : [
                -4.561739042063806e-10,
                0.0716196671128273,
                1.1680447720152642e-09
            ]
        },
        {
            "children" : [
                18
            ],
            "name" : "RightShin",
            "rotation" : [
                0.0003071388928219676,
                0.0007477686740458012,
                -0.0063669439405202866,
                0.9999794363975525
            ],
            "scale" : [
                1,
                1.0000001192092896,
                1
            ],
            "translation" : [
                6.7110281776194824e-09,
                0.08085748553276062,
                4.654024110539723e-10
            ]
        },
        {
            "children" : [
                19
            ],
            "name" : "RightThigh",
            "rotation" : [
                0.0007655899971723557,
                -0.017330244183540344,
                0.9998490810394287,
                0.0009956121211871505
            ],
            "scale" : [
                1,
                1.000000238418579,
                1.0000003576278687
            ],
            "translation" : [
                -0.031198643147945404,
                2.0640811726480024e-08,
                0.0001773792173480615
            ]
        },
        {
            "name" : "tailbone_05",
            "rotation" : [
                8.881784197001252e-16,
                -6.776263578034403e-21,
                5.8175628636725775e-21,
                1
            ],
            "scale" : [
                1,
                0.9999999403953552,
                0.9999999403953552
            ],
            "translation" : [
                6.776263578034403e-21,
                0.06278789788484573,
                2.9802322387695312e-08
            ]
        },
        {
            "children" : [
                21
            ],
            "name" : "tailbone_04",
            "rotation" : [
                8.881784197001252e-16,
                -8.470329472543003e-21,
                5.8175628636725775e-21,
                1
            ],
            "scale" : [
                1,
                0.9999999403953552,
                0.9999999403953552
            ],
            "translation" : [
                8.470329472543003e-21,
                0.06120575591921806,
                2.9802322387695312e-08
            ]
        },
        {
            "children" : [
                22
            ],
            "name" : "tailbone_03",
            "rotation" : [
                8.881784197001252e-16,
                1.6940658945086007e-21,
                -9.586942520132896e-22,
                1
            ],
            "scale" : [
                1,
                0.9999998807907104,
                0.9999999403953552
            ],
            "translation" : [
                6.776259539066568e-21,
                0.0631517842411995,
                1.4901161193847656e-08
            ]
        },
        {
            "children" : [
                23
            ],
            "name" : "tailbone_02",
            "rotation" : [
                8.881784197001252e-16,
                1.6940632691795081e-21,
                -1.0951126847650789e-19,
                1
            ],
            "translation" : [
                -1.816936142802537e-21,
                0.046161994338035583,
                2.9802322387695312e-08
            ]
        },
        {
            "children" : [
                24
            ],
            "name" : "tailbone_01",
            "rotation" : [
                1.8626460374093767e-09,
                3.2640550147716024e-14,
                6.252777158891054e-13,
                1
            ],
            "translation" : [
                9.462945197864678e-22,
                0.014441050589084625,
                2.994761416630354e-08
            ]
        },
        {
            "children" : [
                25
            ],
            "name" : "tailbone_0",
            "rotation" : [
                -0.6947841644287109,
                -6.264257876864576e-07,
                -6.061790145395207e-07,
                0.7192183136940002
            ],
            "scale" : [
                1,
                0.9999998807907104,
                0.9999998807907104
            ],
            "translation" : [
                7.227531568787526e-07,
                0.03669051453471184,
                -0.03520936518907547
            ]
        },
        {
            "children" : [
                12,
                16,
                20,
                26
            ],
            "name" : "Hips",
            "rotation" : [
                -0.01727757230401039,
                8.715826425031992e-07,
                -1.4316611007814117e-08,
                0.9998507499694824
            ],
            "scale" : [
                1,
                0.9999999403953552,
                0.9999999403953552
            ],
            "translation" : [
                -6.613145160372369e-07,
                0.18240587413311005,
                0.011896108277142048
            ]
        },
        {
            "mesh" : 0,
            "name" : "Gine",
            "skin" : 0
        },
        {
            "children" : [
                28,
                27
            ],
            "name" : "Armature"
        },
        {
            "mesh" : 1,
            "name" : "Scouter",
            "translation" : [
                0.08094124495983124,
                0.39405786991119385,
                -0.01008564606308937
            ]
        }
    ],
    "materials" : [
        {
            "doubleSided" : true,
            "name" : "gine_texture",
            "pbrMetallicRoughness" : {
                "baseColorTexture" : {
                    "index" : 0
                },
                "metallicFactor" : 0,
                "roughnessFactor" : 0.6000000238418579
            }
        },
        {
            "alphaMode" : "BLEND",
            "doubleSided" : true,
            "name" : "sctr_texture",
            "pbrMetallicRoughness" : {
                "baseColorTexture" : {
                    "index" : 1
                },
                "metallicFactor" : 0,
                "roughnessFactor" : 0.6000000238418579
            }
        }
    ],
    "meshes" : [
        {
            "name" : "gine_gine_texture_0",
            "primitives" : [
                {
                    "attributes" : {
                        "POSITION" : 0,
                        "NORMAL" : 1,
                        "TEXCOORD_0" : 2,
                        "JOINTS_0" : 3,
                        "WEIGHTS_0" : 4
                    },
                    "indices" : 5,
                    "material" : 0
                }
            ]
        },
        {
            "name" : "Scouter",
            "primitives" : [
                {
                    "attributes" : {
                        "POSITION" : 7,
                        "NORMAL" : 8,
                        "TEXCOORD_0" : 9,
                        "TEXCOORD_1" : 10
                    },
                    "indices" : 11,
                    "material" : 1
                }
            ]
        }
    ],
    "textures" : [
        {
            "sampler" : 0,
            "source" : 0
        },
        {
            "sampler" : 0,
            "source" : 1
        }
    ],
    "images" : [
        {
            "mimeType" : "image/jpeg",
            "name" : "gine_texture_baseColor",
            "uri" : "gine_texture_baseColor.jpg"
        },
        {
            "mimeType" : "image/png",
            "name" : "sctr_texture_baseColor",
            "uri" : "sctr_texture_baseColor.png"
        }
    ],
    "skins" : [
        {
            "inverseBindMatrices" : 6,
            "joints" : [
                27,
                12,
                11,
                10,
                1,
                0,
                5,
                4,
                3,
                2,
                9,
                8,
                7,
                6,
                16,
                15,
                14,
                13,
                20,
                19,
                18,
                17,
                26,
                25,
                24,
                23,
                22,
                21
            ],
            "name" : "Armature"
        }
    ],
    "accessors" : [
        {
            "bufferView" : 0,
            "componentType" : 5126,
            "count" : 3015,
            "max" : [
                0.19863583147525787,
                0.5666553974151611,
                0.08550576865673065
            ],
            "min" : [
                -0.19863586127758026,
                -0.0008674900163896382,
                -0.3384811282157898
            ],
            "type" : "VEC3"
        },
        {
            "bufferView" : 1,
            "componentType" : 5126,
            "count" : 3015,
            "type" : "VEC3"
        },
        {
            "bufferView" : 2,
            "componentType" : 5126,
            "count" : 3015,
            "type" : "VEC2"
        },
        {
            "bufferView" : 3,
            "componentType" : 5121,
            "count" : 3015,
            "type" : "VEC4"
        },
        {
            "bufferView" : 4,
            "componentType" : 5126,
            "count" : 3015,
            "type" : "VEC4"
        },
        {
            "bufferView" : 5,
            "componentType" : 5123,
            "count" : 12582,
            "type" : "SCALAR"
        },
        {
            "bufferView" : 6,
            "componentType" : 5126,
            "count" : 28,
            "type" : "MAT4"
        },
        {
            "bufferView" : 7,
            "componentType" : 5126,
            "count" : 314,
            "max" : [
                0.025638522580266,
                0.03763442113995552,
                0.08508475124835968
            ],
            "min" : [
                -0.07587876170873642,
                -0.03461359813809395,
                -0.027269558981060982
            ],
            "type" : "VEC3"
        },
        {
            "bufferView" : 8,
            "componentType" : 5126,
            "count" : 314,
            "type" : "VEC3"
        },
        {
            "bufferView" : 9,
            "componentType" : 5126,
            "count" : 314,
            "type" : "VEC2"
        },
        {
            "bufferView" : 10,
            "componentType" : 5126,
            "count" : 314,
            "type" : "VEC2"
        },
        {
            "bufferView" : 11,
            "componentType" : 5123,
            "count" : 1062,
            "type" : "SCALAR"
        }
    ],
    "bufferViews" : [
        {
            "buffer" : 0,
            "byteLength" : 36180,
            "byteOffset" : 0
        },
        {
            "buffer" : 0,
            "byteLength" : 36180,
            "byteOffset" : 36180
        },
        {
            "buffer" : 0,
            "byteLength" : 24120,
            "byteOffset" : 72360
        },
        {
            "buffer" : 0,
            "byteLength" : 12060,
            "byteOffset" : 96480
        },
        {
            "buffer" : 0,
            "byteLength" : 48240,
            "byteOffset" : 108540
        },
        {
            "buffer" : 0,
            "byteLength" : 25164,
            "byteOffset" : 156780
        },
        {
            "buffer" : 0,
            "byteLength" : 1792,
            "byteOffset" : 181944
        },
        {
            "buffer" : 0,
            "byteLength" : 3768,
            "byteOffset" : 183736
        },
        {
            "buffer" : 0,
            "byteLength" : 3768,
            "byteOffset" : 187504
        },
        {
            "buffer" : 0,
            "byteLength" : 2512,
            "byteOffset" : 191272
        },
        {
            "buffer" : 0,
            "byteLength" : 2512,
            "byteOffset" : 193784
        },
        {
            "buffer" : 0,
            "byteLength" : 2124,
            "byteOffset" : 196296
        }
    ],
    "samplers" : [
        {
            "magFilter" : 9729,
            "minFilter" : 9987
        }
    ],
    "buffers" : [
        {
            "byteLength" : 198420,
            "uri" : "gine.bin"
        }
    ]
}
