{
    "asset" : {
        "generator" : "Khronos glTF Blender I/O v1.6.16",
        "version" : "2.0"
    },
    "scene" : 0,
    "scenes" : [
        {
            "name" : "Scene",
            "nodes" : [
                0,
                1
            ]
        }
    ],
    "nodes" : [
        {
            "name" : "Camera",
            "rotation" : [
                0.483536034822464,
                0.33687159419059753,
                -0.20870360732078552,
                0.7804827094078064
            ],
            "translation" : [
                7.358891487121582,
                4.958309173583984,
                6.925790786743164
            ]
        },
        {
            "mesh" : 0,
            "name" : "WarSword"
        }
    ],
    "materials" : [
        {
            "emissiveTexture" : {
                "index" : 0
            },
            "name" : "Sword",
            "normalTexture" : {
                "index" : 1
            },
            "pbrMetallicRoughness" : {
                "baseColorTexture" : {
                    "index" : 2
                },
                "roughnessFactor" : 0.7450879216194153
            }
        }
    ],
    "meshes" : [
        {
            "name" : "WarSword",
            "primitives" : [
                {
                    "attributes" : {
                        "POSITION" : 0,
                        "TEXCOORD_0" : 1
                    },
                    "indices" : 2,
                    "material" : 0
                }
            ]
        }
    ],
    "textures" : [
        {
            "sampler" : 0,
            "source" : 0
        },
        {
            "sampler" : 0,
            "source" : 1
        },
        {
            "sampler" : 0,
            "source" : 2
        }
    ],
    "images" : [
        {
            "mimeType" : "image/png",
            "name" : "Map #70",
            "uri" : "Map%2070.png"
        },
        {
            "mimeType" : "image/png",
            "name" : "Map #53",
            "uri" : "Map%2053.png"
        },
        {
            "mimeType" : "image/png",
            "name" : "Map #73",
            "uri" : "Map%2073.png"
        }
    ],
    "accessors" : [
        {
            "bufferView" : 0,
            "componentType" : 5126,
            "count" : 1442,
            "max" : [
                0.029154986143112183,
                0.7814559936523438,
                0.12080395221710205
            ],
            "min" : [
                -0.029154986143112183,
                -0.19313019514083862,
                -0.167217418551445
            ],
            "type" : "VEC3"
        },
        {
            "bufferView" : 1,
            "componentType" : 5126,
            "count" : 1442,
            "type" : "VEC2"
        },
        {
            "bufferView" : 2,
            "componentType" : 5123,
            "count" : 7716,
            "type" : "SCALAR"
        }
    ],
    "bufferViews" : [
        {
            "buffer" : 0,
            "byteLength" : 17304,
            "byteOffset" : 0
        },
        {
            "buffer" : 0,
            "byteLength" : 11536,
            "byteOffset" : 17304
        },
        {
            "buffer" : 0,
            "byteLength" : 15432,
            "byteOffset" : 28840
        }
    ],
    "samplers" : [
        {
            "magFilter" : 9729,
            "minFilter" : 9987
        }
    ],
    "buffers" : [
        {
            "byteLength" : 44272,
            "uri" : "war_sword.bin"
        }
    ]
}
