{
    "asset" : {
        "generator" : "Khronos glTF Blender I/O v1.7.33",
        "version" : "2.0"
    },
    "scene" : 0,
    "scenes" : [
        {
            "name" : "Scene",
            "nodes" : [
                48
            ]
        }
    ],
    "nodes" : [
        {
            "name" : "claw_a.01",
            "rotation" : [
                1.2165770613137283e-09,
                4.371138828673793e-08,
                -5.3178280219454125e-17,
                1
            ],
            "translation" : [
                4.134465224337174e-16,
                1.399999737739563,
                4.7292729732362204e-09
            ]
        },
        {
            "children" : [
                0
            ],
            "name" : "claw_a.00",
            "rotation" : [
                3.090862321641907e-08,
                0.7071068286895752,
                0.7071068286895752,
                3.090862321641907e-08
            ],
            "translation" : [
                0,
                0.18271631002426147,
                0.5436811447143555
            ]
        },
        {
            "name" : "claw_b.01",
            "rotation" : [
                1.376069658221013e-08,
                -1.0929438687412585e-08,
                -2.9802322387695312e-08,
                1
            ],
            "translation" : [
                -5.878499820255456e-08,
                1.4000002145767212,
                5.3492815510480796e-08
            ]
        },
        {
            "children" : [
                2
            ],
            "name" : "claw_b.00",
            "rotation" : [
                -0.6123723983764648,
                0.3535533845424652,
                0.3535533845424652,
                0.6123724579811096
            ],
            "translation" : [
                -0.470841646194458,
                0.18271639943122864,
                -0.27184057235717773
            ]
        },
        {
            "name" : "claw_c.01",
            "rotation" : [
                1.3760701023102229e-08,
                7.917864763840043e-08,
                5.960464477539063e-08,
                1
            ],
            "translation" : [
                4.513448459420033e-08,
                1.4000000953674316,
                -3.7612044252455235e-06
            ]
        },
        {
            "children" : [
                4
            ],
            "name" : "claw_c.00",
            "rotation" : [
                -0.6123723983764648,
                -0.3535533845424652,
                -0.3535533845424652,
                0.6123724579811096
            ],
            "translation" : [
                0.470841646194458,
                0.18271639943122864,
                -0.2718406021595001
            ]
        },
        {
            "children" : [
                1,
                3,
                5
            ],
            "name" : "claw",
            "rotation" : [
                -5.7323710223045055e-08,
                0,
                0,
                1
            ],
            "translation" : [
                0,
                1,
                0
            ]
        },
        {
            "children" : [
                6
            ],
            "name" : "arm.39",
            "translation" : [
                0,
                1,
                0
            ]
        },
        {
            "children" : [
                7
            ],
            "name" : "arm.38",
            "translation" : [
                0,
                1,
                0
            ]
        },
        {
            "children" : [
                8
            ],
            "name" : "arm.37",
            "translation" : [
                0,
                1,
                0
            ]
        },
        {
            "children" : [
                9
            ],
            "name" : "arm.36",
            "translation" : [
                0,
                1,
                0
            ]
        },
        {
            "children" : [
                10
            ],
            "name" : "arm.35",
            "translation" : [
                0,
                1,
                0
            ]
        },
        {
            "children" : [
                11
            ],
            "name" : "arm.34",
            "translation" : [
                0,
                1,
                0
            ]
        },
        {
            "children" : [
                12
            ],
            "name" : "arm.33",
            "translation" : [
                0,
                1,
                0
            ]
        },
        {
            "children" : [
                13
            ],
            "name" : "arm.32",
            "translation" : [
                0,
                1,
                0
            ]
        },
        {
            "children" : [
                14
            ],
            "name" : "arm.31",
            "translation" : [
                0,
                1,
                0
            ]
        },
        {
            "children" : [
                15
            ],
            "name" : "arm.30",
            "translation" : [
                0,
                1,
                0
            ]
        },
        {
            "children" : [
                16
            ],
            "name" : "arm.29",
            "translation" : [
                0,
                1,
                0
            ]
        },
        {
            "children" : [
                17
            ],
            "name" : "arm.28",
            "translation" : [
                0,
                1,
                0
            ]
        },
        {
            "children" : [
                18
            ],
            "name" : "arm.27",
            "translation" : [
                0,
                1,
                0
            ]
        },
        {
            "children" : [
                19
            ],
            "name" : "arm.26",
            "translation" : [
                0,
                1,
                0
            ]
        },
        {
            "children" : [
                20
            ],
            "name" : "arm.25",
            "translation" : [
                0,
                1,
                0
            ]
        },
        {
            "children" : [
                21
            ],
            "name" : "arm.24",
            "translation" : [
                0,
                1,
                0
            ]
        },
        {
            "children" : [
                22
            ],
            "name" : "arm.23",
            "translation" : [
                0,
                1,
                0
            ]
        },
        {
            "children" : [
                23
            ],
            "name" : "arm.22",
            "translation" : [
                0,
                1,
                0
            ]
        },
        {
            "children" : [
                24
            ],
            "name" : "arm.21",
            "translation" : [
                0,
                1,
                0
            ]
        },
        {
            "children" : [
                25
            ],
            "name" : "arm.20",
            "translation" : [
                0,
                1,
                0
            ]
        },
        {
            "children" : [
                26
            ],
            "name" : "arm.19",
            "translation" : [
                0,
                1,
                0
            ]
        },
        {
            "children" : [
                27
            ],
            "name" : "arm.18",
            "translation" : [
                0,
                1,
                0
            ]
        },
        {
            "children" : [
                28
            ],
            "name" : "arm.17",
            "translation" : [
                0,
                1,
                0
            ]
        },
        {
            "children" : [
                29
            ],
            "name" : "arm.16",
            "translation" : [
                0,
                1,
                0
            ]
        },
        {
            "children" : [
                30
            ],
            "name" : "arm.15",
            "translation" : [
                0,
                1,
                0
            ]
        },
        {
            "children" : [
                31
            ],
            "name" : "arm.14",
            "translation" : [
                0,
                1,
                0
            ]
        },
        {
            "children" : [
                32
            ],
            "name" : "arm.13",
            "translation" : [
                0,
                1,
                0
            ]
        },
        {
            "children" : [
                33
            ],
            "name" : "arm.12",
            "translation" : [
                0,
                1,
                0
            ]
        },
        {
            "children" : [
                34
            ],
            "name" : "arm.11",
            "translation" : [
                0,
                1,
                0
            ]
        },
        {
            "children" : [
                35
            ],
            "name" : "arm.10",
            "translation" : [
                0,
                1,
                0
            ]
        },
        {
            "children" : [
                36
            ],
            "name" : "arm.09",
            "translation" : [
                0,
                1,
                0
            ]
        },
        {
            "children" : [
                37
            ],
            "name" : "arm.08",
            "translation" : [
                0,
                1,
                0
            ]
        },
        {
            "children" : [
                38
            ],
            "name" : "arm.07",
            "translation" : [
                0,
                1,
                0
            ]
        },
        {
            "children" : [
                39
            ],
            "name" : "arm.06",
            "translation" : [
                0,
                1,
                0
            ]
        },
        {
            "children" : [
                40
            ],
            "name" : "arm.05",
            "translation" : [
                0,
                1,
                0
            ]
        },
        {
            "children" : [
                41
            ],
            "name" : "arm.04",
            "translation" : [
                0,
                1,
                0
            ]
        },
        {
            "children" : [
                42
            ],
            "name" : "arm.03",
            "translation" : [
                0,
                1.0000001192092896,
                0
            ]
        },
        {
            "children" : [
                43
            ],
            "name" : "arm.02",
            "translation" : [
                0,
                0.9999999403953552,
                0
            ]
        },
        {
            "children" : [
                44
            ],
            "name" : "arm.01",
            "translation" : [
                0,
                0.9999999403953552,
                0
            ]
        },
        {
            "children" : [
                45
            ],
            "name" : "arm.00"
        },
        {
            "mesh" : 0,
            "name" : "Tentacle",
            "skin" : 0
        },
        {
            "children" : [
                47,
                46
            ],
            "name" : "Armature"
        }
    ],
    "meshes" : [
        {
            "name" : "Tentacle",
            "primitives" : [
                {
                    "attributes" : {
                        "POSITION" : 0,
                        "NORMAL" : 1,
                        "JOINTS_0" : 2,
                        "WEIGHTS_0" : 3
                    },
                    "indices" : 4
                }
            ]
        }
    ],
    "skins" : [
        {
            "inverseBindMatrices" : 5,
            "joints" : [
                46,
                45,
                44,
                43,
                42,
                41,
                40,
                39,
                38,
                37,
                36,
                35,
                34,
                33,
                32,
                31,
                30,
                29,
                28,
                27,
                26,
                25,
                24,
                23,
                22,
                21,
                20,
                19,
                18,
                17,
                16,
                15,
                14,
                13,
                12,
                11,
                10,
                9,
                8,
                7,
                6,
                1,
                0,
                3,
                2,
                5,
                4
            ],
            "name" : "Armature"
        }
    ],
    "accessors" : [
        {
            "bufferView" : 0,
            "componentType" : 5126,
            "count" : 36619,
            "max" : [
                2.9607126712799072,
                40.30271530151367,
                3.3436808586120605
            ],
            "min" : [
                -2.9607129096984863,
                0,
                -1.7844239473342896
            ],
            "type" : "VEC3"
        },
        {
            "bufferView" : 1,
            "componentType" : 5126,
            "count" : 36619,
            "type" : "VEC3"
        },
        {
            "bufferView" : 2,
            "componentType" : 5121,
            "count" : 36619,
            "type" : "VEC4"
        },
        {
            "bufferView" : 3,
            "componentType" : 5126,
            "count" : 36619,
            "type" : "VEC4"
        },
        {
            "bufferView" : 4,
            "componentType" : 5123,
            "count" : 58092,
            "type" : "SCALAR"
        },
        {
            "bufferView" : 5,
            "componentType" : 5126,
            "count" : 47,
            "type" : "MAT4"
        }
    ],
    "bufferViews" : [
        {
            "buffer" : 0,
            "byteLength" : 439428,
            "byteOffset" : 0
        },
        {
            "buffer" : 0,
            "byteLength" : 439428,
            "byteOffset" : 439428
        },
        {
            "buffer" : 0,
            "byteLength" : 146476,
            "byteOffset" : 878856
        },
        {
            "buffer" : 0,
            "byteLength" : 585904,
            "byteOffset" : 1025332
        },
        {
            "buffer" : 0,
            "byteLength" : 116184,
            "byteOffset" : 1611236
        },
        {
            "buffer" : 0,
            "byteLength" : 3008,
            "byteOffset" : 1727420
        }
    ],
    "buffers" : [
        {
            "byteLength" : 1730428,
            "uri" : "robo_tentacle.bin"
        }
    ]
}
