{
    "asset" : {
        "generator" : "Khronos glTF Blender I/O v1.7.33",
        "version" : "2.0"
    },
    "scene" : 0,
    "scenes" : [
        {
            "name" : "Scene",
            "nodes" : [
                18
            ]
        }
    ],
    "nodes" : [
        {
            "name" : "pulsegun",
            "rotation" : [
                0.5661402344703674,
                7.186574657680467e-05,
                -0.00010456039308337495,
                0.8243089318275452
            ],
            "scale" : [
                0.9999999403953552,
                1,
                1
            ],
            "translation" : [
                0.0001973482285393402,
                0.2637830674648285,
                0.7318087816238403
            ]
        },
        {
            "name" : "buttonC",
            "rotation" : [
                -0.8243088722229004,
                0.00010459749319124967,
                7.187634037109092e-05,
                0.5661404132843018
            ],
            "scale" : [
                0.9999999403953552,
                1,
                0.9999998807907104
            ],
            "translation" : [
                -0.018238205462694168,
                1.043762445449829,
                -0.16596613824367523
            ]
        },
        {
            "name" : "buttonD",
            "rotation" : [
                -0.8243088722229004,
                0.00010459749319124967,
                7.187634037109092e-05,
                0.5661404132843018
            ],
            "scale" : [
                0.9999999403953552,
                1,
                0.9999998807907104
            ],
            "translation" : [
                -0.0541788674890995,
                1.0437657833099365,
                -0.165957510471344
            ]
        },
        {
            "name" : "buttonA",
            "rotation" : [
                -0.8243091106414795,
                0.00010459710756549612,
                7.187646406237036e-05,
                0.5661400556564331
            ],
            "scale" : [
                0.9999999403953552,
                1,
                1
            ],
            "translation" : [
                0.053852323442697525,
                1.0437562465667725,
                -0.16598308086395264
            ]
        },
        {
            "name" : "buttonB",
            "rotation" : [
                -0.8243089318275452,
                0.00010459696932230145,
                7.187634037109092e-05,
                0.5661402344703674
            ],
            "scale" : [
                0.9999999403953552,
                1,
                1
            ],
            "translation" : [
                0.017146553844213486,
                1.0437595844268799,
                -0.165974423289299
            ]
        },
        {
            "name" : "LeverA",
            "rotation" : [
                -0.634449303150177,
                0.0001204470099764876,
                3.990041295764968e-05,
                0.7729644775390625
            ],
            "scale" : [
                0.9999999403953552,
                1,
                1
            ],
            "translation" : [
                0.13969534635543823,
                1.0709128379821777,
                -0.03399692103266716
            ]
        },
        {
            "name" : "LeverB",
            "rotation" : [
                -0.634449303150177,
                0.00012044703180436045,
                3.990041295764968e-05,
                0.7729644775390625
            ],
            "scale" : [
                0.9999999403953552,
                1,
                1
            ],
            "translation" : [
                -0.1384744495153427,
                1.0709381103515625,
                -0.03393089398741722
            ]
        },
        {
            "children" : [
                0,
                1,
                2,
                3,
                4,
                5,
                6
            ],
            "name" : "rotator",
            "rotation" : [
                0.18255279958248138,
                0.0002419962693238631,
                -4.493215601542033e-05,
                0.9831961393356323
            ],
            "scale" : [
                1,
                1,
                0.9999999403953552
            ],
            "translation" : [
                -4.7536644759427205e-12,
                0.19390571117401123,
                1.530253257442382e-08
            ]
        },
        {
            "name" : "legA3",
            "rotation" : [
                -0.6222332715988159,
                -0.00423757079988718,
                -0.0004025720991194248,
                0.7828203439712524
            ],
            "scale" : [
                1,
                0.9999999403953552,
                0.9999998807907104
            ],
            "translation" : [
                2.4955125965675506e-08,
                0.6700088977813721,
                1.1312643266592204e-08
            ]
        },
        {
            "children" : [
                8
            ],
            "name" : "legA2",
            "rotation" : [
                0.0015595998847857118,
                0.0047187586314976215,
                -0.004159148782491684,
                0.9999790191650391
            ],
            "scale" : [
                1.0000001192092896,
                1,
                1
            ],
            "translation" : [
                -2.0603156514198417e-08,
                0.8682470321655273,
                -3.647376400905955e-09
            ]
        },
        {
            "children" : [
                9
            ],
            "name" : "legA1",
            "rotation" : [
                -0.0008961543207988143,
                -0.0007755220867693424,
                0.001842676429077983,
                0.999997615814209
            ],
            "scale" : [
                0.9999999403953552,
                1,
                1
            ],
            "translation" : [
                7.0435941523783185e-09,
                0.7249602675437927,
                5.468356323312662e-11
            ]
        },
        {
            "children" : [
                10
            ],
            "name" : "legA0",
            "rotation" : [
                -0.9999997615814209,
                -8.669852391562927e-09,
                0.00074613286415115,
                0.0001493596500949934
            ],
            "translation" : [
                0.4947195053100586,
                0.19453787803649902,
                -0.0003690942539833486
            ]
        },
        {
            "name" : "legB3",
            "rotation" : [
                -0.6222399473190308,
                0.012710662558674812,
                0.0012074143160134554,
                0.7827224731445312
            ],
            "scale" : [
                1,
                1.0000001192092896,
                1.0000001192092896
            ],
            "translation" : [
                3.14321368932724e-08,
                0.6700668931007385,
                -3.550667315721512e-09
            ]
        },
        {
            "children" : [
                12
            ],
            "name" : "legB2",
            "rotation" : [
                0.001639662659727037,
                -0.014432310126721859,
                0.012924053706228733,
                0.9998109936714172
            ],
            "scale" : [
                1,
                1,
                1.0000001192092896
            ],
            "translation" : [
                4.5399644932331285e-08,
                0.8683028817176819,
                -6.704091060072415e-09
            ]
        },
        {
            "children" : [
                13
            ],
            "name" : "legB1",
            "rotation" : [
                -0.00087886763503775,
                0.004098128993064165,
                -0.005974286235868931,
                0.9999733567237854
            ],
            "scale" : [
                0.9999998807907104,
                0.9999999403953552,
                1
            ],
            "translation" : [
                6.491507331674029e-09,
                0.7249599099159241,
                3.358583633428225e-09
            ]
        },
        {
            "children" : [
                14
            ],
            "name" : "legB0",
            "rotation" : [
                -0.9999997615814209,
                -8.66987015513132e-09,
                0.0007461329223588109,
                0.00014935966464690864
            ],
            "translation" : [
                -0.49255916476249695,
                0.19453787803649902,
                0.00036743126111105084
            ]
        },
        {
            "children" : [
                7,
                11,
                15
            ],
            "name" : "root",
            "rotation" : [
                4.802962472183481e-09,
                -0.00037300793337635696,
                -3.582938633284183e-12,
                0.9999999403953552
            ],
            "scale" : [
                1.0000001192092896,
                1,
                1.0000001192092896
            ],
            "translation" : [
                -2.7790673408356614e-12,
                1.7242610454559326,
                0.04591779783368111
            ]
        },
        {
            "mesh" : 0,
            "name" : "at_rt",
            "skin" : 0
        },
        {
            "children" : [
                17,
                16
            ],
            "name" : "Armature"
        }
    ],
    "materials" : [
        {
            "name" : "rep_at-rt",
            "pbrMetallicRoughness" : {
                "baseColorTexture" : {
                    "index" : 0
                },
                "metallicFactor" : 0,
                "roughnessFactor" : 0.5
            }
        }
    ],
    "meshes" : [
        {
            "name" : "Mesh",
            "primitives" : [
                {
                    "attributes" : {
                        "POSITION" : 0,
                        "NORMAL" : 1,
                        "TEXCOORD_0" : 2,
                        "JOINTS_0" : 3,
                        "WEIGHTS_0" : 4
                    },
                    "indices" : 5,
                    "material" : 0
                }
            ]
        }
    ],
    "textures" : [
        {
            "sampler" : 0,
            "source" : 0
        }
    ],
    "images" : [
        {
            "mimeType" : "image/jpeg",
            "name" : "rep_at-rt",
            "uri" : "rep_at-rt.jpg"
        }
    ],
    "skins" : [
        {
            "inverseBindMatrices" : 6,
            "joints" : [
                16,
                7,
                0,
                1,
                2,
                3,
                4,
                5,
                6,
                11,
                10,
                9,
                8,
                15,
                14,
                13,
                12
            ],
            "name" : "Armature"
        }
    ],
    "accessors" : [
        {
            "bufferView" : 0,
            "componentType" : 5126,
            "count" : 8455,
            "max" : [
                0.855679452419281,
                4.0967559814453125,
                1.899564504623413
            ],
            "min" : [
                -0.8556793332099915,
                -0.6416077613830566,
                -0.8414070010185242
            ],
            "type" : "VEC3"
        },
        {
            "bufferView" : 1,
            "componentType" : 5126,
            "count" : 8455,
            "type" : "VEC3"
        },
        {
            "bufferView" : 2,
            "componentType" : 5126,
            "count" : 8455,
            "type" : "VEC2"
        },
        {
            "bufferView" : 3,
            "componentType" : 5121,
            "count" : 8455,
            "type" : "VEC4"
        },
        {
            "bufferView" : 4,
            "componentType" : 5126,
            "count" : 8455,
            "type" : "VEC4"
        },
        {
            "bufferView" : 5,
            "componentType" : 5123,
            "count" : 18357,
            "type" : "SCALAR"
        },
        {
            "bufferView" : 6,
            "componentType" : 5126,
            "count" : 17,
            "type" : "MAT4"
        }
    ],
    "bufferViews" : [
        {
            "buffer" : 0,
            "byteLength" : 101460,
            "byteOffset" : 0
        },
        {
            "buffer" : 0,
            "byteLength" : 101460,
            "byteOffset" : 101460
        },
        {
            "buffer" : 0,
            "byteLength" : 67640,
            "byteOffset" : 202920
        },
        {
            "buffer" : 0,
            "byteLength" : 33820,
            "byteOffset" : 270560
        },
        {
            "buffer" : 0,
            "byteLength" : 135280,
            "byteOffset" : 304380
        },
        {
            "buffer" : 0,
            "byteLength" : 36714,
            "byteOffset" : 439660
        },
        {
            "buffer" : 0,
            "byteLength" : 1088,
            "byteOffset" : 476376
        }
    ],
    "samplers" : [
        {
            "magFilter" : 9729,
            "minFilter" : 9987
        }
    ],
    "buffers" : [
        {
            "byteLength" : 477464,
            "uri" : "at_rt.bin"
        }
    ]
}
