{"accessors" : [{"bufferView" : 0, "byteOffset" : 0, "componentType" : 5123, "count" : 19716, "type" : "SCALAR", "max" : [16744], "min" : [0]}, {"bufferView" : 1, "byteOffset" : 0, "componentType" : 5126, "count" : 16745, "type" : "VEC3", "max" : [80.71859741210938, 114.88300323486328, 308.40899658203125], "min" : [-80.71859741210938, -66.55449676513672, 0.44839298725128174], "name" : "POSITION"}, {"bufferView" : 1, "byteOffset" : 12, "componentType" : 5126, "count" : 16745, "type" : "VEC3", "max" : [0.9998074173927307, 0.9995893836021423, 0.9999454021453857], "min" : [-0.9998074173927307, -0.9999950528144836, -0.9999990463256836], "name" : "NORMAL"}, {"bufferView" : 1, "byteOffset" : 24, "componentType" : 5126, "count" : 16745, "type" : "VEC2", "max" : [0.9973329901695251, -0.005200000014156103], "min" : [0.00266700005158782, -0.9941700100898743], "name" : "TEXCOORD_0"}, {"bufferView" : 0, "byteOffset" : 39432, "componentType" : 5123, "count" : 312, "type" : "SCALAR", "max" : [249], "min" : [0]}, {"bufferView" : 2, "byteOffset" : 0, "componentType" : 5126, "count" : 250, "type" : "VEC3", "max" : [15.422800064086914, -47.13370132446289, 191.59500122070312], "min" : [-15.422800064086914, -65.07569885253906, 169.57899475097656], "name" : "POSITION"}, {"bufferView" : 2, "byteOffset" : 12, "componentType" : 5126, "count" : 250, "type" : "VEC3", "max" : [0.9404428005218506, -0.27284911274909973, 0.8502357602119446], "min" : [-0.9404428005218506, -0.8305310606956482, -0.2597061097621918], "name" : "NORMAL"}, {"bufferView" : 2, "byteOffset" : 24, "componentType" : 5126, "count" : 250, "type" : "VEC2", "max" : [0.45170000195503235, -1.7610700130462646], "min" : [0.04831499978899956, -1.9894499778747559], "name" : "TEXCOORD_0"}, {"bufferView" : 0, "byteOffset" : 40056, "componentType" : 5123, "count" : 504, "type" : "SCALAR", "max" : [425], "min" : [0]}, {"bufferView" : 3, "byteOffset" : 0, "componentType" : 5126, "count" : 426, "type" : "VEC3", "max" : [12.934800148010254, -54.83000183105469, 177.08799743652344], "min" : [-12.934800148010254, -67.98889923095703, 163.0070037841797], "name" : "POSITION"}, {"bufferView" : 3, "byteOffset" : 12, "componentType" : 5126, "count" : 426, "type" : "VEC3", "max" : [0.8826000094413757, -0.361764520406723, 0.9080584049224854], "min" : [-0.8826000094413757, -0.9978030323982239, -0.7736395001411438], "name" : "NORMAL"}, {"bufferView" : 3, "byteOffset" : 24, "componentType" : 5126, "count" : 426, "type" : "VEC2", "max" : [0.48177000880241394, -2.764849901199341], "min" : [0.01822800002992153, -2.993079900741577], "name" : "TEXCOORD_0"}, {"bufferView" : 0, "byteOffset" : 41064, "componentType" : 5123, "count" : 1728, "type" : "SCALAR", "max" : [1457], "min" : [0]}, {"bufferView" : 4, "byteOffset" : 0, "componentType" : 5126, "count" : 1458, "type" : "VEC3", "max" : [13.771699905395508, 3.7717199325561523, 3.7717199325561523], "min" : [-13.771699905395508, -3.7717199325561523, -3.7717199325561523], "name" : "POSITION"}, {"bufferView" : 4, "byteOffset" : 12, "componentType" : 5126, "count" : 1458, "type" : "VEC3", "max" : [1.0000044107437134, 1.0000044107437134, 1.0000044107437134], "min" : [-1.0000044107437134, -1.0000044107437134, -1.0000044107437134], "name" : "NORMAL"}, {"bufferView" : 4, "byteOffset" : 24, "componentType" : 5126, "count" : 1458, "type" : "VEC2", "max" : [0.5440080165863037, -0.004395000170916319], "min" : [0.4559909999370575, -0.38231799006462097], "name" : "TEXCOORD_0"}], "asset" : {"generator" : "Aspose.3D 22.3", "version" : "2.0"}, "buffers" : [{"uri" : "data:application/octet-stream;base64,", "byteLength" : 756860}], "bufferViews" : [{"buffer" : 0, "byteOffset" : 0, "byteLength" : 44520, "target" : 34963}, {"buffer" : 0, "byteOffset" : 44524, "byteLength" : 630912, "byteStride" : 32, "target" : 34962}, {"buffer" : 0, "byteOffset" : 675440, "byteLength" : 9984, "byteStride" : 32, "target" : 34962}, {"buffer" : 0, "byteOffset" : 685428, "byteLength" : 16128, "byteStride" : 32, "target" : 34962}, {"buffer" : 0, "byteOffset" : 701560, "byteLength" : 55296, "byteStride" : 32, "target" : 34962}], "meshes" : [{"primitives" : [{"attributes" : {"POSITION" : 1, "NORMAL" : 2, "TEXCOORD_0" : 3}, "indices" : 0, "mode" : 4}, {"attributes" : {"POSITION" : 5, "NORMAL" : 6, "TEXCOORD_0" : 7}, "indices" : 4, "mode" : 4}, {"attributes" : {"POSITION" : 9, "NORMAL" : 10, "TEXCOORD_0" : 11}, "indices" : 8, "mode" : 4}], "name" : ""}, {"primitives" : [{"attributes" : {"POSITION" : 13, "NORMAL" : 14, "TEXCOORD_0" : 15}, "indices" : 12, "mode" : 4}], "name" : ""}], "nodes" : [{"mesh" : 0, "name" : "Goodra"}, {"mesh" : 1, "name" : "Goodra_GooDrops"}], "scene" : 0, "scenes" : [{"nodes" : [0, 1]}]}