{"accessors" : [{"bufferView" : 0, "byteOffset" : 0, "componentType" : 5123, "count" : 17646, "type" : "SCALAR", "max" : [15131], "min" : [0]}, {"bufferView" : 1, "byteOffset" : 0, "componentType" : 5126, "count" : 15132, "type" : "VEC3", "max" : [90.82640075683594, 319.968994140625, 199.32200622558594], "min" : [-90.82640075683594, -30.478599548339844, -0.0004030000127386302], "name" : "POSITION"}, {"bufferView" : 1, "byteOffset" : 12, "componentType" : 5126, "count" : 15132, "type" : "VEC3", "max" : [0.999998927116394, 1.0000044107437134, 1.0000030994415283], "min" : [-0.999998927116394, -1.0000044107437134, -1.0000044107437134], "name" : "NORMAL"}, {"bufferView" : 1, "byteOffset" : 24, "componentType" : 5126, "count" : 15132, "type" : "VEC2", "max" : [1, -0.009971999563276768], "min" : [0, -0.9911980032920837], "name" : "TEXCOORD_0"}, {"bufferView" : 0, "byteOffset" : 35292, "componentType" : 5123, "count" : 894, "type" : "SCALAR", "max" : [762], "min" : [0]}, {"bufferView" : 2, "byteOffset" : 0, "componentType" : 5126, "count" : 763, "type" : "VEC3", "max" : [18.21649932861328, -1.7734400033950806, 176.2100067138672], "min" : [-18.21649932861328, -19.203899383544922, 154.72999572753906], "name" : "POSITION"}, {"bufferView" : 2, "byteOffset" : 12, "componentType" : 5126, "count" : 763, "type" : "VEC3", "max" : [0.8930802345275879, -0.20311780273914337, 0.3979579210281372], "min" : [-0.8930777311325073, -0.9998251795768738, -0.813076376914978], "name" : "NORMAL"}, {"bufferView" : 2, "byteOffset" : 24, "componentType" : 5126, "count" : 763, "type" : "VEC2", "max" : [0.4944300055503845, -1.7694799900054932], "min" : [0.005570000037550926, -1.9441900253295898], "name" : "TEXCOORD_0"}, {"bufferView" : 0, "byteOffset" : 37080, "componentType" : 5123, "count" : 480, "type" : "SCALAR", "max" : [385], "min" : [0]}, {"bufferView" : 3, "byteOffset" : 0, "componentType" : 5126, "count" : 386, "type" : "VEC3", "max" : [18.388999938964844, -1.8710800409317017, 176.15899658203125], "min" : [-18.388999938964844, -16.548599243164062, 160.99400329589844], "name" : "POSITION"}, {"bufferView" : 3, "byteOffset" : 12, "componentType" : 5126, "count" : 386, "type" : "VEC3", "max" : [0.8787646889686584, -0.19791777431964874, 0.08130839467048645], "min" : [-0.8787646889686584, -0.7417659759521484, -0.6358588337898254], "name" : "NORMAL"}, {"bufferView" : 3, "byteOffset" : 24, "componentType" : 5126, "count" : 386, "type" : "VEC2", "max" : [0.8410800099372864, -2.2060000896453857], "min" : [0.022280000150203705, -2.7767601013183594], "name" : "TEXCOORD_0"}], "asset" : {"generator" : "Aspose.3D 22.3", "version" : "2.0"}, "buffers" : [{"uri" : "data:application/octet-stream;base64,", "byteLength" : 646696}], "bufferViews" : [{"buffer" : 0, "byteOffset" : 0, "byteLength" : 38040, "target" : 34963}, {"buffer" : 0, "byteOffset" : 38044, "byteLength" : 564672, "byteStride" : 32, "target" : 34962}, {"buffer" : 0, "byteOffset" : 602720, "byteLength" : 28608, "byteStride" : 32, "target" : 34962}, {"buffer" : 0, "byteOffset" : 631332, "byteLength" : 15360, "byteStride" : 32, "target" : 34962}], "meshes" : [{"primitives" : [{"attributes" : {"POSITION" : 1, "NORMAL" : 2, "TEXCOORD_0" : 3}, "indices" : 0, "mode" : 4}, {"attributes" : {"POSITION" : 5, "NORMAL" : 6, "TEXCOORD_0" : 7}, "indices" : 4, "mode" : 4}, {"attributes" : {"POSITION" : 9, "NORMAL" : 10, "TEXCOORD_0" : 11}, "indices" : 8, "mode" : 4}], "name" : ""}], "nodes" : [{"mesh" : 0, "name" : "Mewtwo"}], "scene" : 0, "scenes" : [{"nodes" : [0]}]}